External Loads File
version=1
nRows=54
nColumns=13
Range=5.000000e-03-10 seconds
endheader
time 	forceRightX 	forceRightY 	forceRightZ 	pointRightX 	pointRightY 	pointRightZ 	forceLeftX 	forceLeftY 	forceLeftZ 	pointLeftX 	pointLeftY 	pointLeftZ 		
2.505000 228.911438 255.771926 -0.000000 0.233752 0.160631 -0.146518 -101.982692 50.166311 -0.000000 0.332306 0.496372 -0.382196
2.510000 182.216905 181.822903 -0.000000 0.225937 0.164270 -0.146649 -95.117154 77.904735 -0.000000 0.339688 0.493134 -0.382425
2.515000 153.373301 97.842214 -0.000000 0.218050 0.168535 -0.146585 -80.247780 116.845523 -0.000000 0.346712 0.489283 -0.382562
2.520000 114.891010 39.603707 -0.000000 0.210187 0.173300 -0.146641 -78.330852 149.102289 -0.000000 0.353379 0.484735 -0.382820
2.525000 81.993415 -23.946114 -0.000000 0.202375 0.178610 -0.146810 -53.501901 194.128223 -0.000000 0.359732 0.479428 -0.383097
2.530000 53.448100 -63.167907 -0.000000 0.194692 0.184530 -0.146937 -57.543809 232.451940 -0.000000 0.365714 0.473376 -0.383341
2.535000 23.008493 -97.874449 -0.000000 0.187206 0.190823 -0.147160 -38.714728 279.340583 -0.000000 0.371685 0.466660 -0.383836
2.540000 7.983549 -120.086255 -0.000000 0.180057 0.197650 -0.147219 -51.945582 324.273796 -0.000000 0.377329 0.459283 -0.384141
2.545000 -15.269392 -133.928487 -0.000000 0.173253 0.204928 -0.147372 -29.084476 376.916450 -0.000000 0.382607 0.451399 -0.384453
2.550000 -17.718950 -140.882408 -0.000000 0.166920 0.212514 -0.147527 -50.949599 427.087074 -0.000000 0.387674 0.443069 -0.384607
2.555000 -32.584539 -138.260677 -0.000000 0.161153 0.220362 -0.147555 -17.990087 483.373347 -0.000000 0.392394 0.434352 -0.384662
2.560000 -24.580592 -133.724974 -0.000000 0.155852 0.228466 -0.147584 -47.428984 535.721913 -0.000000 0.396717 0.425334 -0.384905
2.565000 -27.608806 -122.134846 -0.000000 0.151170 0.236896 -0.147293 -15.157966 591.295398 -0.000000 0.400786 0.416015 -0.384709
2.570000 -13.488005 -110.727026 -0.000000 0.147081 0.245658 -0.147234 -49.794920 641.990910 -0.000000 0.404500 0.406354 -0.384468
2.575000 -12.155529 -96.065200 -0.000000 0.143562 0.254622 -0.147132 6.795103 694.444316 -0.000000 0.407766 0.396471 -0.384207
2.580000 4.101263 -82.816657 -0.000000 0.140583 0.263832 -0.146988 -32.103457 741.983456 -0.000000 0.410683 0.386327 -0.383916
2.585000 10.128458 -70.663621 -0.000000 0.138240 0.273255 -0.146879 22.345056 787.843900 -0.000000 0.413245 0.375959 -0.383634
2.590000 24.205011 -58.429399 -0.000000 0.136354 0.282821 -0.146728 -20.666088 830.431173 -0.000000 0.415348 0.365447 -0.383316
2.595000 29.864229 -50.438544 -0.000000 0.134546 0.292609 -0.147092 32.789019 869.500682 -0.000000 0.417018 0.354903 -0.383007
2.600000 39.492364 -40.707358 -0.000000 0.133861 0.302310 -0.146946 -16.434008 906.277693 -0.000000 0.418176 0.344248 -0.382783
2.605000 41.662420 -37.856117 -0.000000 0.133742 0.312260 -0.146823 47.758083 938.557533 -0.000000 0.418850 0.333588 -0.382499
2.610000 46.155766 -32.011226 -0.000000 0.134048 0.322357 -0.146774 -7.117861 970.540646 -0.000000 0.419267 0.322914 -0.382304
2.615000 44.103307 -33.825547 -0.000000 0.135026 0.332592 -0.146785 49.736476 998.233569 -0.000000 0.418744 0.312252 -0.382469
2.620000 43.219956 -32.928919 -0.000000 0.136300 0.342829 -0.146864 -12.612354 1027.208991 -0.000000 0.418034 0.301596 -0.382300
2.625000 35.270410 -39.462257 -0.000000 0.138284 0.353101 -0.146993 49.586150 1053.665466 -0.000000 0.416728 0.291014 -0.382440
2.630000 29.557449 -43.435396 -0.000000 0.140934 0.363669 -0.147041 -22.523299 1082.621000 -0.000000 0.415031 0.280618 -0.382562
2.635000 16.775247 -51.977606 -0.000000 0.143996 0.374046 -0.147179 22.728050 1111.647507 -0.000000 0.412836 0.270326 -0.382636
2.640000 8.078710 -59.401331 -0.000000 0.147598 0.384344 -0.147241 -54.395612 1140.758931 -0.000000 0.410145 0.260238 -0.382655
2.645000 -9.631564 -67.359054 -0.000000 0.151774 0.394514 -0.147309 22.396138 1172.885175 -0.000000 0.406828 0.250452 -0.382618
2.650000 -18.752938 -75.263333 -0.000000 0.156552 0.404323 -0.147318 -52.675850 1203.134501 -0.000000 0.403060 0.240988 -0.382272
2.655000 -36.100691 -79.231974 -0.000000 0.161427 0.413802 -0.147335 18.093461 1234.362778 -0.000000 0.398728 0.231806 -0.381943
2.660000 -42.684064 -85.392497 -0.000000 0.167103 0.422992 -0.147446 -54.566055 1261.113620 -0.000000 0.393792 0.223034 -0.381723
2.665000 -57.751184 -84.278390 -0.000000 0.173186 0.431804 -0.147622 30.516418 1285.703461 -0.000000 0.388356 0.214654 -0.381514
2.670000 -60.577996 -88.288888 -0.000000 0.179748 0.440242 -0.147890 -35.327122 1303.708694 -0.000000 0.382399 0.206653 -0.381388
2.675000 -71.971158 -83.825783 -0.000000 0.186733 0.448594 -0.148102 59.749209 1313.819582 -0.000000 0.375933 0.199020 -0.381305
2.680000 -71.740620 -87.216179 -0.000000 0.194146 0.456177 -0.148482 3.506317 1317.734937 -0.000000 0.368989 0.191836 -0.381222
2.685000 -80.857523 -81.759713 -0.000000 0.201848 0.463338 -0.148863 110.544890 1306.124714 -0.000000 0.361601 0.185172 -0.381172
2.690000 -79.202495 -86.266594 -0.000000 0.209863 0.470122 -0.149311 60.804262 1292.095127 -0.000000 0.353836 0.179041 -0.381109
2.695000 -87.614404 -81.282374 -0.000000 0.218571 0.476316 -0.149496 167.754226 1254.198790 -0.000000 0.345717 0.173480 -0.381065
2.700000 -86.205932 -86.503699 -0.000000 0.227340 0.482133 -0.149930 124.340677 1219.697832 -0.000000 0.337345 0.168578 -0.381002
2.705000 -95.509085 -80.036162 -0.000000 0.236178 0.486793 -0.150465 229.632983 1152.791916 -0.000000 0.328692 0.164315 -0.381003
2.710000 -94.952648 -83.477516 -0.000000 0.245156 0.491641 -0.150837 189.884101 1097.487774 -0.000000 0.319891 0.160690 -0.380907
2.715000 -104.335971 -72.320645 -0.000000 0.254349 0.495198 -0.151231 280.781693 1002.867810 -0.000000 0.311032 0.157721 -0.380848
2.720000 -103.768792 -70.810269 -0.000000 0.263707 0.498308 -0.151524 237.053803 929.248006 -0.000000 0.302053 0.155467 -0.380789
2.725000 -110.612572 -51.991576 -0.000000 0.273235 0.500695 -0.151731 301.681019 813.419459 -0.000000 0.293090 0.153891 -0.380758
2.730000 -109.048655 -42.441535 -0.000000 0.282886 0.502395 -0.151966 254.817675 725.183269 -0.000000 0.284137 0.153033 -0.380703
2.735000 -110.171943 -14.006811 -0.000000 0.292640 0.503433 -0.152120 293.031218 596.358321 -0.000000 0.275130 0.152880 -0.380690
2.740000 -106.322687 4.227133 -0.000000 0.302223 0.504142 -0.152476 243.266936 501.956580 -0.000000 0.266099 0.153440 -0.380726
2.745000 -98.372053 39.357296 -0.000000 0.311620 0.504072 -0.152989 249.755453 376.647010 -0.000000 0.257015 0.154637 -0.380807
2.750000 -92.067525 64.328595 -0.000000 0.320502 0.503496 -0.153107 201.372517 286.771394 -0.000000 0.247935 0.156478 -0.380823
2.755000 -74.685134 101.949721 -0.000000 0.328995 0.502173 -0.153472 184.431123 178.917032 -0.000000 0.238775 0.158914 -0.380805
2.760000 -67.834024 130.670613 -0.000000 0.336887 0.500138 -0.153857 141.952898 103.797124 -0.000000 0.229611 0.161941 -0.380733
2.765000 -42.285723 168.148996 -0.000000 0.344347 0.497341 -0.154005 112.062355 21.778080 -0.000000 0.220425 0.165535 -0.380704
2.770000 -38.007031 200.197008 -0.000000 0.351454 0.493595 -0.154227 79.274999 -32.829842 -0.000000 0.211401 0.169720 -0.380680
